HIERARCHY
ROOT Hips
{
    OFFSET 0.000000 0.000000 0.000000
    CHANNELS 6 Xposition Yposition Zposition Zrotation Xrotation Yrotation
    JOINT Spine
    {
        OFFSET 0.000001 7.292995 0.000000
        CHANNELS 3 Zrotation Xrotation Yrotation
        JOINT Spine1
        {
            OFFSET -0.000000 20.255388 0.000001
            CHANNELS 3 Zrotation Xrotation Yrotation
            JOINT Neck
            {
                OFFSET 0.000001 20.786594 0.000000
                CHANNELS 3 Zrotation Xrotation Yrotation
                JOINT Head
                {
                    OFFSET 0.000003 12.530788 1.776080
                    CHANNELS 3 Zrotation Xrotation Yrotation
                    End Site
                    {
                        OFFSET 0.000000 17.760757 0.000000
                    }
                }
            }
            JOINT LeftShoulder
            {
                OFFSET 3.550532 15.465697 -0.908801
                CHANNELS 3 Zrotation Xrotation Yrotation
                JOINT LeftArm
                {
                    OFFSET 12.513301 -0.000005 0.000001
                    CHANNELS 3 Zrotation Xrotation Yrotation
                    JOINT LeftForeArm
                    {
                        OFFSET 24.225992 0.000005 0.000000
                        CHANNELS 3 Zrotation Xrotation Yrotation
                        JOINT LeftHand
                        {
                            OFFSET 20.711395 -0.000004 0.000000
                            CHANNELS 3 Zrotation Xrotation Yrotation
                            JOINT LeftHandThumb1
                            {
                                OFFSET 2.121964 -2.411326 3.375861
                                CHANNELS 3 Zrotation Xrotation Yrotation
                                JOINT LeftHandThumb2
                                {
                                    OFFSET 2.803212 -0.000001 -0.000002
                                    CHANNELS 3 Zrotation Xrotation Yrotation
                                    JOINT LeftHandThumb3
                                    {
                                        OFFSET 2.395929 0.000000 0.000000
                                        CHANNELS 3 Zrotation Xrotation Yrotation
                                        End Site
                                        {
                                            OFFSET 2.127676 0.000000 0.000000
                                        }
                                    }
                                }
                            }
                            JOINT LeftHandIndex1
                            {
                                OFFSET 8.680776 0.000004 3.375861
                                CHANNELS 3 Zrotation Xrotation Yrotation
                                JOINT LeftHandIndex2
                                {
                                    OFFSET 4.218180 -0.000002 0.000001
                                    CHANNELS 3 Zrotation Xrotation Yrotation
                                    JOINT LeftHandIndex3
                                    {
                                        OFFSET 2.109090 0.000001 -0.000000
                                        CHANNELS 3 Zrotation Xrotation Yrotation
                                        End Site
                                        {
                                            OFFSET 1.872952 0.000000 0.000000
                                        }
                                    }
                                }
                            }
                            JOINT LeftHandMiddle1
                            {
                                OFFSET 8.680775 0.000001 1.118862
                                CHANNELS 3 Zrotation Xrotation Yrotation
                                JOINT LeftHandMiddle2
                                {
                                    OFFSET 4.640000 0.000002 -0.000000
                                    CHANNELS 3 Zrotation Xrotation Yrotation
                                    JOINT LeftHandMiddle3
                                    {
                                        OFFSET 2.530906 0.000005 0.000000
                                        CHANNELS 3 Zrotation Xrotation Yrotation
                                        End Site
                                        {
                                            OFFSET 2.247544 0.000000 0.000000
                                        }
                                    }
                                }
                            }
                            JOINT LeftHandRing1
                            {
                                OFFSET 8.198514 -0.000004 -1.118859
                                CHANNELS 3 Zrotation Xrotation Yrotation
                                JOINT LeftHandRing2
                                {
                                    OFFSET 4.218182 -0.000003 -0.000001
                                    CHANNELS 3 Zrotation Xrotation Yrotation
                                    JOINT LeftHandRing3
                                    {
                                        OFFSET 2.109086 0.000004 0.000001
                                        CHANNELS 3 Zrotation Xrotation Yrotation
                                        End Site
                                        {
                                            OFFSET 1.872952 0.000000 0.000000
                                        }
                                    }
                                }
                            }
                            JOINT LeftHandPinky1
                            {
                                OFFSET 7.716242 0.000005 -3.375859
                                CHANNELS 3 Zrotation Xrotation Yrotation
                                JOINT LeftHandPinky2
                                {
                                    OFFSET 3.374535 0.000004 0.000002
                                    CHANNELS 3 Zrotation Xrotation Yrotation
                                    JOINT LeftHandPinky3
                                    {
                                        OFFSET 1.687275 0.000002 -0.000001
                                        CHANNELS 3 Zrotation Xrotation Yrotation
                                        End Site
                                        {
                                            OFFSET 1.498360 0.000000 0.000000
                                        }
                                    }
                                }
                            }
                        }
                    }
                }
            }
            JOINT RightShoulder
            {
                OFFSET -3.550531 15.465694 -0.908802
                CHANNELS 3 Zrotation Xrotation Yrotation
                JOINT RightArm
                {
                    OFFSET -12.513298 -0.000004 0.000001
                    CHANNELS 3 Zrotation Xrotation Yrotation
                    JOINT RightForeArm
                    {
                        OFFSET -24.225996 -0.000002 -0.000000
                        CHANNELS 3 Zrotation Xrotation Yrotation
                        JOINT RightHand
                        {
                            OFFSET -20.711401 0.000005 0.000001
                            CHANNELS 3 Zrotation Xrotation Yrotation
                            JOINT RightHandThumb1
                            {
                                OFFSET -2.121970 -2.411334 3.375861
                                CHANNELS 3 Zrotation Xrotation Yrotation
                                JOINT RightHandThumb2
                                {
                                    OFFSET -2.803210 0.000003 -0.000004
                                    CHANNELS 3 Zrotation Xrotation Yrotation
                                    JOINT RightHandThumb3
                                    {
                                        OFFSET -2.395930 -0.000001 0.000002
                                        CHANNELS 3 Zrotation Xrotation Yrotation
                                        End Site
                                        {
                                            OFFSET -2.127676 0.000000 0.000000
                                        }
                                    }
                                }
                            }
                            JOINT RightHandIndex1
                            {
                                OFFSET -8.680779 0.000001 3.375860
                                CHANNELS 3 Zrotation Xrotation Yrotation
                                JOINT RightHandIndex2
                                {
                                    OFFSET -4.218180 0.000000 -0.000000
                                    CHANNELS 3 Zrotation Xrotation Yrotation
                                    JOINT RightHandIndex3
                                    {
                                        OFFSET -2.109090 0.000001 -0.000000
                                        CHANNELS 3 Zrotation Xrotation Yrotation
                                        End Site
                                        {
                                            OFFSET -1.872952 0.000000 0.000000
                                        }
                                    }
                                }
                            }
                            JOINT RightHandMiddle1
                            {
                                OFFSET -8.680780 0.000001 1.118860
                                CHANNELS 3 Zrotation Xrotation Yrotation
                                JOINT RightHandMiddle2
                                {
                                    OFFSET -4.640000 -0.000002 0.000001
                                    CHANNELS 3 Zrotation Xrotation Yrotation
                                    JOINT RightHandMiddle3
                                    {
                                        OFFSET -2.530910 0.000001 -0.000000
                                        CHANNELS 3 Zrotation Xrotation Yrotation
                                        End Site
                                        {
                                            OFFSET -2.247544 0.000000 0.000000
                                        }
                                    }
                                }
                            }
                            JOINT RightHandRing1
                            {
                                OFFSET -8.198519 0.000005 -1.118860
                                CHANNELS 3 Zrotation Xrotation Yrotation
                                JOINT RightHandRing2
                                {
                                    OFFSET -4.218180 -0.000006 0.000000
                                    CHANNELS 3 Zrotation Xrotation Yrotation
                                    JOINT RightHandRing3
                                    {
                                        OFFSET -2.109090 0.000001 -0.000000
                                        CHANNELS 3 Zrotation Xrotation Yrotation
                                        End Site
                                        {
                                            OFFSET -1.872952 0.000000 0.000000
                                        }
                                    }
                                }
                            }
                            JOINT RightHandPinky1
                            {
                                OFFSET -7.716248 -0.000002 -3.375859
                                CHANNELS 3 Zrotation Xrotation Yrotation
                                JOINT RightHandPinky2
                                {
                                    OFFSET -3.374540 0.000000 0.000000
                                    CHANNELS 3 Zrotation Xrotation Yrotation
                                    JOINT RightHandPinky3
                                    {
                                        OFFSET -1.687270 0.000004 0.000001
                                        CHANNELS 3 Zrotation Xrotation Yrotation
                                        End Site
                                        {
                                            OFFSET -1.498360 0.000000 0.000000
                                        }
                                    }
                                }
                            }
                        }
                    }
                }
            }
        }
    }
    JOINT LeftUpLeg
    {
        OFFSET 8.880376 -0.000000 -0.000000
        CHANNELS 3 Zrotation Xrotation Yrotation
        JOINT LeftLeg
        {
            OFFSET -0.000001 -40.387405 -0.000001
            CHANNELS 3 Zrotation Xrotation Yrotation
            JOINT LeftFoot
            {
                OFFSET -0.000001 -36.911297 -0.000001
                CHANNELS 3 Zrotation Xrotation Yrotation
                JOINT LeftToeBase
                {
                    OFFSET -0.000002 -5.772240 13.320604
                    CHANNELS 3 Zrotation Xrotation Yrotation
                    End Site
                    {
                        OFFSET 0.000000 0.000000 3.552151
                    }
                }
            }
        }
    }
    JOINT RightUpLeg
    {
        OFFSET -8.880376 0.000000 0.000000
        CHANNELS 3 Zrotation Xrotation Yrotation
        JOINT RightLeg
        {
            OFFSET -0.000001 -40.387390 0.000000
            CHANNELS 3 Zrotation Xrotation Yrotation
            JOINT RightFoot
            {
                OFFSET 0.000002 -36.911297 -0.000001
                CHANNELS 3 Zrotation Xrotation Yrotation
                JOINT RightToeBase
                {
                    OFFSET 0.000001 -5.772238 13.320600
                    CHANNELS 3 Zrotation Xrotation Yrotation
                    End Site
                    {
                        OFFSET 0.000000 0.000000 3.552151
                    }
                }
            }
        }
    }
}
MOTION
Frames: 4
Frame Time: 0.013889
52.817337    83.438629    132.966034    -1.752819    7.787736    4.590467    0.424155    -23.992683    1.043028    0.521886    15.168040    0.783221    -1.387314    -5.052553    -1.661436    1.260373    3.479701    -1.618855    -2.329189    6.153038    -1.339001    -59.527351    45.625519    -13.992476    -7.883545    -20.612436    -21.471079    -11.096564    6.709495    7.808594    28.682539    36.290558    -40.653492    -13.139422    -0.530765    23.311764    -0.000000    0.000000    -0.000000    -6.152537    17.902912    -1.646461    -5.853547    -0.000000    0.000002    -5.853543    -0.000002    -0.000000    -4.744452    8.969667    -1.030821    -4.686299    0.000002    0.000002    -4.686313    -0.000005    -0.000004    -4.153641    -8.976748    -1.284962    -4.102676    -0.000000    0.000001    -4.102681    -0.000000    0.000001    -3.699676    -17.964857    -2.414032    -3.519052    0.000001    0.000001    -3.519056    -0.000002    -0.000000    6.770137    5.731453    2.455665    65.156662    32.593735    6.750718    10.921913    -27.247494    22.854248    -5.109509    -1.445776    -8.984290    -36.743210    30.373039    43.459507    14.019774    -0.910003    -23.300705    -0.000000    0.000000    -0.000000    9.571108    17.765245    0.727091    9.110713    0.000000    -0.000000    9.110717    -0.000000    -0.000001    9.408234    8.880886    0.370812    9.294435    0.000000    0.000001    9.294436    0.000002    -0.000001    9.501180    -8.878525    -1.269483    9.386289    0.000002    -0.000000    9.386296    -0.000001    -0.000001    9.956398    -17.745995    -2.435629    9.478138    0.000001    -0.000001    9.478152    -0.000001    -0.000000    -2.720404    -3.197571    12.473949    0.000000    3.615973    -0.000000    -0.264522    -4.686628    3.466546    0.000000    2.472122    -0.000001    0.449131    -3.898712    -20.300022    -0.000000    7.741752    0.000003    5.676127    -9.388566    -3.915268    0.000001    4.255704    0.000002    
52.824944    83.417557    132.960541    -1.774588    7.759521    4.618317    0.416717    -23.995745    1.024616    0.552784    15.155068    0.759061    -1.370006    -5.045612    -1.647992    1.232893    3.471467    -1.605226    -2.298764    6.130852    -1.428639    -59.171268    45.618961    -14.282476    -7.455275    -20.027626    -20.911793    -11.583712    6.890448    7.917270    28.815155    36.198559    -40.748337    -13.096480    -0.512276    23.312170    -0.000000    0.000000    -0.000000    -6.045655    17.906254    -1.813084    -5.751793    0.000003    0.000002    -5.751788    -0.000005    -0.000000    -4.731205    8.969841    -1.099776    -4.673206    -0.000002    -0.000000    -4.673211    0.000002    0.000002    -4.185264    -8.976394    -1.338605    -4.133912    -0.000003    -0.000000    -4.133917    0.000003    0.000001    -3.779095    -17.963337    -2.535943    -3.594621    0.000002    -0.000001    -3.594625    -0.000002    0.000000    6.741179    5.709296    2.439878    65.103584    32.403027    6.715557    10.628113    -26.976078    22.473888    -4.971564    -1.530091    -8.868340    -36.796852    30.326078    43.500763    13.998541    -0.900854    -23.301039    -0.000000    0.000000    -0.000000    9.586345    17.764502    0.769994    9.125257    -0.000002    0.000000    9.125264    0.000003    -0.000000    9.435835    8.880188    0.390324    9.321714    0.000000    0.000001    9.321724    0.000002    0.000001    9.535222    -8.877655    -1.267963    9.419946    -0.000000    -0.000001    9.419946    0.000000    -0.000001    9.998332    -17.743851    -2.430315    9.518183    -0.000001    0.000000    9.518157    0.000001    -0.000001    -2.771298    -3.191551    12.743220    -0.000000    3.532911    -0.000001    -0.211169    -4.824374    3.667204    0.000000    2.479763    -0.000001    0.462327    -3.874570    -20.370008    -0.000000    7.755517    -0.000003    5.707260    -9.451281    -3.872336    -0.000000    4.249888    0.000003    
52.842529    83.419106    132.953461    -1.774072    7.723635    4.630129    0.413063    -24.001116    1.015420    0.556863    15.138535    0.750071    -1.317909    -4.996536    -1.608959    1.198702    3.476836    -1.569762    -2.265282    6.083099    -1.534670    -58.725620    45.615307    -14.637733    -6.971364    -19.353056    -20.253296    -12.200952    7.110528    7.991887    28.877764    36.154778    -40.835281    -13.090431    -0.509655    23.312212    -0.000000    0.000000    -0.000000    -5.965579    17.908716    -1.938836    -5.675558    0.000004    -0.000003    -5.675544    -0.000000    0.000005    -4.738890    8.969731    -1.149139    -4.680811    0.000003    0.000000    -4.680809    -0.000002    0.000002    -4.235404    -8.975823    -1.394890    -4.183440    0.000000    0.000000    -4.183433    0.000002    0.000001    -3.875201    -17.961447    -2.662505    -3.686055    0.000000    0.000000    -3.686076    0.000001    -0.000001    6.698428    5.681962    2.450504    65.077705    32.187439    6.680286    10.306225    -26.720263    22.019579    -4.870398    -1.709893    -8.842582    -36.879650    30.254200    43.560589    13.964650    -0.886261    -23.301567    -0.000000    0.000000    -0.000000    9.612411    17.763222    0.828040    9.150092    0.000003    -0.000004    9.150108    -0.000001    0.000003    9.474977    8.879193    0.417283    9.360391    -0.000000    -0.000001    9.360401    -0.000000    -0.000002    9.581368    -8.876467    -1.272754    9.465546    -0.000001    -0.000002    9.465548    -0.000000    -0.000000    10.053411    -17.741020    -2.437358    9.570694    -0.000000    -0.000000    9.570685    -0.000000    -0.000001    -2.780914    -3.173818    12.755899    0.000000    3.557942    -0.000001    -0.166849    -4.826112    3.610283    -0.000001    2.548456    0.000004    0.445269    -3.849805    -20.415087    0.000000    7.775741    -0.000000    5.725961    -9.456321    -3.844279    0.000000    4.265169    -0.000000    
52.813709    83.401947    132.879654    -1.859061    7.748630    4.784765    0.384085    -23.985992    0.944757    0.577149    15.085192    0.683283    -1.203707    -5.001385    -1.579951    1.153408    3.438551    -1.547155    -2.201437    5.943982    -1.710236    -57.891453    45.602177    -15.300515    -6.247785    -18.206284    -19.310461    -13.296751    7.503776    8.398808    29.020201    36.055161    -40.921230    -13.054749    -0.494285    23.312519    -0.000000    0.000000    -0.000000    -5.818702    17.913149    -2.115257    -5.535719    0.000003    0.000002    -5.535735    0.000003    -0.000002    -4.753305    8.969563    -1.212523    -4.695028    -0.000003    0.000002    -4.695036    -0.000003    0.000002    -4.327781    -8.974755    -1.471617    -4.274679    -0.000002    0.000001    -4.274685    0.000000    -0.000002    -4.052058    -17.957846    -2.841666    -3.854337    -0.000001    0.000001    -3.854347    0.000001    -0.000001    6.618127    5.629499    2.506495    65.052284    31.878321    6.652256    9.852480    -26.348204    21.370920    -4.697337    -2.059712    -8.955678    -36.965126    30.180899    43.617050    13.931225    -0.871865    -23.302090    -0.000000    0.000000    -0.000000    9.670179    17.760368    0.914007    9.205181    -0.000000    -0.000004    9.205201    0.000000    0.000003    9.533013    8.877711    0.460120    9.417766    0.000000    0.000002    9.417758    -0.000002    -0.000003    9.640552    -8.874941    -1.293391    9.524035    -0.000000    -0.000001    9.524053    0.000000    0.000001    10.115930    -17.737799    -2.477849    9.630322    0.000000    0.000000    9.630320    0.000001    0.000000    -2.682140    -3.341599    12.746843    0.000000    3.701147    -0.000000    -0.069167    -4.899031    3.528377    0.000000    2.591217    -0.000001    0.530951    -3.952242    -20.450905    0.000000    7.847419    0.000005    5.709812    -9.511063    -3.946177    -0.000000    4.280120    -0.000001    
